<svg width="500" height="53" viewBox="0 0 500 53" fill="none" xmlns="http://www.w3.org/2000/svg">
<line x1="4.37114e-08" y1="0.5" x2="500" y2="0.500044" stroke="#1E2A38"/>
<path d="M47.5 46.8333C46.0272 46.8333 44.8333 48.0272 44.8333 49.5C44.8333 50.9728 46.0272 52.1667 47.5 52.1667C48.9728 52.1667 50.1667 50.9728 50.1667 49.5C50.1667 48.0272 48.9728 46.8333 47.5 46.8333ZM47 0.5L47 49.5L48 49.5L48 0.5L47 0.5Z" fill="#343434"/>
<path d="M439.5 46.8333C438.027 46.8333 436.833 48.0272 436.833 49.5C436.833 50.9728 438.027 52.1667 439.5 52.1667C440.973 52.1667 442.167 50.9728 442.167 49.5C442.167 48.0272 440.973 46.8333 439.5 46.8333ZM439 0.5L439 49.5L440 49.5L440 0.5L439 0.5Z" fill="#343434"/>
<path d="M228.5 46.8333C227.027 46.8333 225.833 48.0272 225.833 49.5C225.833 50.9728 227.027 52.1667 228.5 52.1667C229.973 52.1667 231.167 50.9728 231.167 49.5C231.167 48.0272 229.973 46.8333 228.5 46.8333ZM228 0.5L228 49.5L229 49.5L229 0.5L228 0.5Z" fill="#343434"/>
</svg>
